<svg xmlns="http://www.w3.org/2000/svg" viewBox="0 0 546.67 466.88"><defs><style>.cls-1{fill:#efa354}</style></defs><g id="Layer_2" data-name="Layer 2"><path id="FREIFORM" d="M265.94 3.65C208 102.23 124.41 160.27 0 200.77c124.41 40.51 215.43 80 273.34 178.62 57.92-98.58 148.92-131.73 273.33-172.23C422.26 166.65 323.86 102.23 265.94 3.65Z"/><g id="TATTOO"><path d="M101.29 464.05a22 22 0 0 1-9.37-1.84 22 22 0 0 1-9.38 1.84c-5.73 0-16.69-3.68-16.19-18.15 3.45-1.21 7.91-2.11 7.8-5-2.19-.65-4.71-2.49-5.38-5.1-1.18-4.61 1.43-7 1.43-7s-3.45 1.94-6.44 1.74c-9.42-.61-15.37-9.45-15.37-20.06 0-7.6 4.13-17.28 4.4-23.27 5.77 2.68 24.81-.87 27.54-.87s8.32 1.08 11.59 3.05c3.26-2 8.69-3.05 12.24-3.05s20.76 3 27.25.87c-.93 5.63 4 15.57 4 23.27 0 21.54-19 20.41-19 20.41a19.77 19.77 0 0 1-7.28-1.4v9.88c0 3.29 8.1 7.8 8.1 7.8 0 12.69-10.23 16.88-15.94 16.88" class="cls-1"/><path d="M125.54 393.73c-1.61 4-16.88.78-21.57.67-5.62-.13-10 2.15-12 6.57-2-4.42-6.43-6.7-12.06-6.57-4.68.11-20 3.35-21.56-.67 1.2 6.57-2 9.78-1.88 16.61.13 6.48 3.22 11.25 8.84 12.32a11.5 11.5 0 0 0 8.17-1.47s-3.75-1.07-3.75-7.5 4.16-7 6.57-7 6.29 2.27 6.29 9.1c0 2.1 0 5.11.09 8.27-10.81.55-9.65 12.41-3.17 14.17-.38-2.39.14-3.88 3.37-4.16.06 3 .11 5 .11 5-.4 3.62-1.47 8.84-8.3 8.3 0 0-.27 8.58 7.9 8.58s9.38-4.42 9.38-4.42 1.2 4.42 9.37 4.42 7.91-8.58 7.91-8.58c-6.84.54-8.11-4.11-8.11-8.3v-23.24c0-6.83 4.09-9.1 6.5-9.1s6.56.53 6.56 7-3.75 7.5-3.75 7.5a11.52 11.52 0 0 0 8.17 1.47c5.63-1.07 8.71-5.84 8.84-12.32.09-6.87-3.13-10.08-1.92-16.65"/><path d="M242.05 464.05a22.07 22.07 0 0 1-9.38-1.84 22 22 0 0 1-9.37 1.84c-5.73 0-16.69-3.68-16.19-18.15 3.45-1.21 7.9-2.11 7.8-5-2.19-.65-4.71-2.49-5.38-5.1-1.18-4.61 1.43-7 1.43-7s-3.45 1.94-6.44 1.74c-9.42-.61-15.37-9.45-15.37-20.06 0-7.6 4.13-17.28 4.4-23.27 5.77 2.68 24.81-.87 27.54-.87s8.32 1.08 11.58 3.05c3.27-2 8.7-3.05 12.25-3.05s20.76 3 27.25.87c-.94 5.63 4 15.57 4 23.27 0 21.54-19 20.41-19 20.41a19.72 19.72 0 0 1-7.28-1.4v9.88c0 3.29 8.1 7.8 8.1 7.8.01 12.69-10.21 16.88-15.94 16.88" class="cls-1"/><path d="M266.29 393.73c-1.6 4-16.87.78-21.56.67-5.63-.13-10 2.15-12.06 6.57-2-4.42-6.42-6.7-12-6.57-4.69.11-20 3.35-21.56-.67 1.2 6.57-2 9.78-1.88 16.61.13 6.48 3.22 11.25 8.84 12.32a11.5 11.5 0 0 0 8.17-1.47s-3.75-1.07-3.75-7.5 4.15-7 6.56-7 6.3 2.27 6.3 9.1c0 2.1 0 5.11.09 8.27-10.81.55-9.65 12.41-3.17 14.17-.38-2.39.13-3.88 3.37-4.16.06 3 .11 5 .11 5-.4 3.62-1.47 8.84-8.3 8.3 0 0-.27 8.58 7.9 8.58s9.37-4.42 9.37-4.42 1.21 4.42 9.38 4.42 7.9-8.58 7.9-8.58c-6.83.54-8.1-4.11-8.1-8.3v-23.24c0-6.83 4.08-9.1 6.5-9.1s6.56.53 6.56 7-3.75 7.5-3.75 7.5a11.5 11.5 0 0 0 8.17 1.47c5.62-1.07 8.71-5.84 8.84-12.32.08-6.87-3.13-10.08-1.93-16.65"/><path d="M323.7 464.05a22 22 0 0 1-9.37-1.84 22 22 0 0 1-9.38 1.84c-5.73 0-16.69-3.68-16.19-18.15 3.45-1.21 7.91-2.11 7.8-5-2.19-.65-4.71-2.49-5.38-5.1-1.18-4.61 1.43-7 1.43-7s-3.45 1.94-6.44 1.74c-9.42-.61-15.37-9.45-15.37-20.06 0-7.6 4.13-17.28 4.4-23.27 5.77 2.68 24.81-.87 27.54-.87s8.32 1.08 11.59 3.05c3.26-2 8.69-3.05 12.24-3.05s20.76 3 27.25.87c-.93 5.63 4 15.57 4 23.27 0 21.54-19 20.41-19 20.41a19.77 19.77 0 0 1-7.28-1.4v9.88c0 3.29 8.1 7.8 8.1 7.8 0 12.69-10.21 16.88-15.94 16.88" class="cls-1"/><path d="M348 393.73c-1.61 4-16.88.78-21.57.67-5.62-.13-10 2.15-12.05 6.57-2-4.42-6.43-6.7-12.06-6.57-4.68.11-19.95 3.35-21.56-.67 1.2 6.57-2 9.78-1.88 16.61.13 6.48 3.22 11.25 8.84 12.32a11.5 11.5 0 0 0 8.17-1.47s-3.75-1.07-3.75-7.5 4.16-7 6.57-7S305 409 305 415.83c0 2.1 0 5.11.09 8.27-10.81.55-9.65 12.41-3.17 14.17-.38-2.39.14-3.88 3.37-4.16.06 3 .11 5 .11 5-.4 3.62-1.47 8.84-8.3 8.3 0 0-.27 8.58 7.9 8.58s9.38-4.42 9.38-4.42 1.2 4.42 9.37 4.42 7.91-8.58 7.91-8.58c-6.84.54-8.11-4.11-8.11-8.3v-23.28c0-6.83 4.09-9.1 6.5-9.1s6.56.53 6.56 7-3.75 7.5-3.75 7.5a11.5 11.5 0 0 0 8.17 1.47c5.63-1.07 8.71-5.84 8.84-12.32.13-6.87-3.13-10.08-1.87-16.65"/><path d="M465.29 381.81c13.7 0 26 8.69 33.12 20.63 5.36-.41 13 6.14 13 15.4-.3 4.09-1 9.66-7.24 12.84-2.84 20.46-19.19 36.2-38.87 36.2-21.67 0-39.3-19.08-39.3-42.54s17.62-42.53 39.29-42.53m-.81 26.43h-.18zh.21Zm.5 31.53h-.39.41Z" class="cls-1"/><path d="M465.29 458.84c17.27 0 31.26-15.44 31.26-34.5 11.22-.36 10.1-12.53 3.5-14.32.43 2.73-.3 4.29-4.86 4.24-3.91-14.13-15.82-24.4-29.9-24.4C448 389.85 434 405.29 434 424.34s14 34.5 31.29 34.5m-9.91-33.59c2.75.83 10.38 2.09 11.7-9.32a9.28 9.28 0 0 1-2.6.37 8.07 8.07 0 1 1 0-16.1c10.32 0 10 10.8 9.42 22.57-2.74-.84-10.37-2.09-11.69 9.32a9.29 9.29 0 0 1 2.6-.38 8.07 8.07 0 1 1 0 16.1c-10.34.01-9.99-10.81-9.43-22.56"/><path d="M392.71 466.88c-13.7 0-26-8.69-33.12-20.63-5.36.41-13-6.14-13-15.4.31-4.09 1-9.66 7.25-12.84 2.83-20.46 19.18-36.2 38.86-36.2 21.67 0 39.31 19.08 39.31 42.53s-17.63 42.54-39.3 42.54m.82-26.43h.17zh-.22Zm-.5-31.53h.39-.22Z" class="cls-1"/><path d="M392.71 389.85c-17.26 0-31.26 15.44-31.26 34.49-11.22.36-10.09 12.52-3.49 14.32-.44-2.73.3-4.29 4.85-4.24 3.92 14.12 15.82 24.4 29.9 24.4 17.27 0 31.27-15.44 31.27-34.5s-13.98-34.47-31.27-34.47m9.91 33.59c-2.74-.83-10.37-2.09-11.69 9.32a9.23 9.23 0 0 1 2.6-.37 8.06 8.06 0 1 1 0 16.09c-10.33 0-10-10.79-9.42-22.56 2.74.84 10.37 2.08 11.69-9.32a9.23 9.23 0 0 1-2.6.38 8.07 8.07 0 1 1 0-16.1c10.33-.01 9.99 10.79 9.42 22.56Z"/><path d="M171.67 464.32a16 16 0 0 1-11.85-4.79c-2.73 2.79-5.32 4.75-10.55 4.75-4.23 0-7.62-3.31-7.62-3.31a15 15 0 0 1-8.75 3.28c-6.16 0-15.58-5.49-13.61-21.26 7.58 1.3 10.79-1.91 10.79-1.91-2.48-1.67-6.33-5.93-4.82-13.13 1.08-5.17 5.12-8.47 12.15-9.78l3-7.83c2.19-7.31.24-8.45-3.84-10 2.34-16.14 18.71-16.7 26.79-10.88 7-6.23 25.27-4 27.08 11.86-5 1.07-7.14 2.91-4.83 9.24l9.58 25.78a12 12 0 0 0 12.26 8.37c.19 9.75-4.56 19.56-14.3 19.56a20.41 20.41 0 0 1-11.42-3.94s-5.84 3.99-10.06 3.99" class="cls-1"/><path d="M199.47 447.44c-6.83.54-10.78-5.09-11.92-8.7l-11.12-33.24s-2.68-6.54 6.83-6.54c-2.28-7.84-15.2-9.71-19.82-.14-4.62-8.57-16.83-7.58-19.83.14 8.23.12 6 6.54 6 6.54l-5.83 18.81c-16.24-.57-14.09 13.6-6.82 14.16-.39-2.47.19-4 3.73-4.18l-1.38 4.45c-1.14 3.61-5.09 9.24-11.92 8.7 0 0-.87 8.78 7.9 8.78 3.68 0 6.63-4.82 6.63-4.82s2.48 4.88 6 4.88c8.3 0 9-8.84 9-8.84-6.25 0-6.71-3.23-6.29-5.7.67-3.26 4.28-5.82 9.1-5.82s8.61 2.65 9.13 6a1.49 1.49 0 0 1 0 .21 3.64 3.64 0 0 1 0 .57c.1 2.27-.92 4.76-6.4 4.76 0 0 .74 8.84 9 8.84 7.44 0 10.05-4.88 10.05-4.88s2.68 4.82 9.85 4.82c8.98-.02 8.11-8.8 8.11-8.8m-39.95-20.14a18.48 18.48 0 0 0-4.2.5l4.5-13.11 4.55 13.31a19.07 19.07 0 0 0-4.85-.7"/></g><g id="number"><path id="number-bg" d="M162.39 359.72c-24.5-21-71.5-39.78-101.5-48.5 4.49-14.41 3.38-64.79.15-80.12h63.69c0 33.87 11.9 53.5 37.66 53.5s34.78-16.88 34.78-30.16c0-17.72-8.72-24.42-19.3-28S152 224.29 152 224.29V160.6s18.42 4.49 29.35-4.38c6.59-5.35 10.55-14.82 10.15-24.28-.9-21.47-23.13-27.15-34.85-27.15-18.55 0-33.48 10.5-35.55 33.68a96.49 96.49 0 0 0 1.09 25.32H60.54c3-33.8 2.18-55.09-3.9-85.31 18-8.13 86.5-29.75 100.05-58C170.89 48 239.48 74.05 257.23 79.3c-5.75 18.25-.34 38.53-.34 60.92 0 27.25-12.5 44-30.7 51 31.2 9.52 34.67 37.14 34.67 63.24 0 22.45-1 39.28 10.53 52.78-31.5 10.48-82.5 31.98-109 52.48M294.18 333l-.54-31.29c-.62-35 8.42-61.87 28.84-83.79 17.06-18.32 39.29-28.89 58-38.22 31-15.46 44.31-24.84 45.92-45.21 0-22.9-19.52-29.58-30.75-30-12.95-.52-22.36 3.67-29.63 10.52-15.37 14.48-6.67 42.36-6.67 42.36h-65.7c2.79-34.59 2.95-54.84-1-78.81 52.84-22.2 80.41-34.22 99.15-60 23.16 30.85 89.93 58.23 103.57 60-3 21.46-5.33 32.68-5.33 59 0 52.1-47.33 81.38-79.16 97.23-15.24 7.59-40 21.3-43.26 38.6h66v-20.5l63.21.78c-.73 34.58-1.79 57.34 8.88 77.19-35.25 2.64-81.26 9.65-108.63 27.87-37.32-17.37-71.53-25.49-102.9-25.73" style="fill:#c13028"/><g id="number-fill-1"><path d="M191.1 128c.05.28.09.57.13.86a9.5 9.5 0 0 0-.13-.86m5.77 121.14c0-.15 0-.3-.05-.45.02.15.03.31.05.45M425.92 128.4c-.07-.36-.14-.72-.22-1.06.08.35.15.66.22 1.06m51.82 205.25c-3.64.49-7.31 1-11 1.64 3.69-.6 7.36-1.15 11-1.64"/><path d="M121.14 138.47c2.07-23.18 17-33.68 35.55-33.68 10.95 0 31.09 5 34.41 23.16-.53-7.94 1.82-14.92 9.08-17.38a14.28 14.28 0 0 1 18.08 9.14 56.45 56.45 0 0 0-14-24.77c-8.18-8.44-23.07-18.5-47.59-18.5-39.33 0-62.8 23.55-62.8 63h-7c-7.07 9.69-16.13 17.56-26.33 24.35h61.69a96.49 96.49 0 0 1-1.09-25.32M435.19 112c7.52-2.55 16 3 18.6 10.52a53.82 53.82 0 0 0-12.92-28.4C433.22 85.21 420.06 76 391.82 76c-39.32 0-62.93 24.55-62.93 64H322c-7.86 6.38-17.58 12.05-28.35 17.34h65.7s-8.7-27.88 6.67-42.36c7.27-6.85 16.68-11 29.63-10.52 10 .41 26.43 5.73 30 22.93.08.34.15.7.22 1.06.06.32.13.62.18.95-.47-7.95 1.87-14.92 9.14-17.4"/><path d="M260.86 254.44c0-26.1-3.47-53.72-34.67-63.24 18.2-7 30.7-23.73 30.7-51 0-22.39-5.41-42.67.34-60.92-32.58 2.94-32.68 36.72-32.68 36.72l-.12-.36a56.6 56.6 0 0 1 2.46 16.27c0 29.57-16.19 54.84-35.15 61.05 19.34 7.22 40.77 28.78 40.77 61.45 0 15.23-6.55 31.49-17.52 43.49-9.19 10-25.77 22-52.6 22-1.42 0-2.84 0-4.25-.08h-.08a87 87 0 0 1-28.85-5.92c-.64-.26-1.27-.54-1.9-.81-8.68-3.87-17-8.83-21.37-13.36a59 59 0 0 1-13.08-20.91l-.16-.42c.47 24.34-31.79 32.83-31.79 32.83 30 8.72 77 27.5 101.5 48.5 26.5-20.5 77.5-42 109-52.5-11.52-13.51-10.55-30.34-10.55-52.79M191.1 128c0 .3 0 .59.06.89h.07c-.04-.37-.08-.66-.13-.89m133.33 207.56q-9.33-1.5-18.35-2.12 9.01.63 18.35 2.12m25.44 5.54q-6.51-1.78-12.86-3.16 6.36 1.38 12.86 3.16m-55.69-8.1q2.94 0 5.92.15-3-.12-5.92-.15m42.82 4.94q-6.36-1.4-12.58-2.38 6.24.99 12.58 2.38"/><path d="M496.76 253.55 465 281.12v27.5H324L294.18 333q2.94 0 5.92.15t6 .33q9 .63 18.35 2.12 6.22 1 12.58 2.38t12.86 3.16a305.29 305.29 0 0 1 47.23 17.51c8.56-5.69 18.93-10.29 30.23-14 2.25-.74 4.55-1.44 6.88-2.12a284.65 284.65 0 0 1 32.55-7.19c3.67-.6 7.34-1.15 11-1.64l3.62-.47c8.43-1.07 16.66-1.86 24.37-2.44-10.71-19.9-9.77-42.66-9.01-77.24M197 250l-.09-.84Zm9-17.66c7.53-2.55 15.77 2 18.33 9.52-5.47-28.36-29-44.92-49.75-44.92h-4.21q-9.3 8.38-18.34 27.35s15.25-1.41 25.83 2.16c9.34 3.15 17.23 8.76 18.95 22.24 0 .15 0 .3.05.45l.09.84v.16c-.74-8.31 1.52-15.25 9.05-17.8m-109.62 27.1c0 5.21 1.69 12.9 3.36 18-2.82-8.48 1.44-18.33 10-21.26s17.74 1.1 20.67 9.62c-3.93-8.79-5.68-20.48-5.68-34.69-13.16 9.22-23.93 18.59-28.35 28.33M459.68 116a86 86 0 0 1 2.1 19.47v.22c-2.71 43.36-33.62 58.75-63.51 73.63-16.82 8.38-34.22 17-46.92 30.67-13.52 14.52-20.2 37.4-20.38 61.65l36.68-28.35c3.28-17.3 28-31 43.26-38.6 31.83-15.85 79.16-45.13 79.16-97.23 0-26.28 2.37-37.5 5.33-59-14.49 6.74-28.16 15.28-35.72 37.54"/></g><path id="number-fill-2" d="M191.74 193c19-6.21 35.15-31.48 35.15-61.05 0-15.09-6.41-30.35-17.58-41.87-9.12-9.41-25.66-20.63-52.62-20.63-21.63 0-39.52 6.68-51.72 19.32-11.83 12.23-18.08 29.77-18.08 50.67h7c0-39.45 23.47-63 62.8-63 24.52 0 39.41 10.06 47.59 18.5 9.77 10.08 15.61 23.91 15.61 37 0 15.62-4.89 30.65-13.76 42.32-7.25 9.53-20.74 15.68-31.54 15.68h-4.21v7h4.21c23.62 0 50.92 21.51 50.92 57.5 0 24.29-19.58 58.5-63.12 58.5-44 0-66-27.73-66-53.5h-7a58.45 58.45 0 0 0 16.56 40.32c9 9.21 27.66 20.18 56.45 20.18 26.83 0 43.41-12 52.6-22 11-12 17.52-28.26 17.52-43.49-.01-32.68-21.44-54.24-40.78-61.45M465 308.62H324l-.06-3.44c-.49-27.81 6.79-53.39 22.24-70 13.56-14.56 31.54-23.51 48.92-32.17 29.38-14.63 57.13-28.44 59.64-67.69 0-37.75-23-59.39-63-59.39-19.61 0-35.74 6.1-46.66 17.65C334.6 104.77 329 120.8 329 140h-7c0-43.8 26.75-71 69.8-71 20.75 0 38.1 5.66 50.18 16.38 13.12 11.64 19.78 28.51 19.78 50.12v.22c-2.71 43.36-33.62 58.75-63.51 73.63-16.82 8.38-34.22 17-46.92 30.67-13.52 14.52-20.2 37.4-20.38 61.65H458v-20.5h7Z" style="fill:#edf0ac"/><g id="number-outline"><path d="M270.86 254.44c0-36.53-7.72-52.47-24-64.17 0 0 20.52-11.88 20-50.05 0-30.33-5.41-46.68 2.94-67.63C228.73 59.79 170.64 38.4 156.36 0 143.72 37.78 91.14 54.22 45.27 72.64c7.39 33 8.39 66.79 4.34 101.15h84.84s-4.44-22.19-3.35-34.41c1.81-20.31 14.91-24.57 25.59-24.57 15.7 0 24.7 7.93 24.86 17.57.45 29.84-39.55 15.9-39.55 15.9v86.8s22-2.86 32.62.84c9 3.13 12.5 8.55 12.5 18.52s-6 21.28-25 21.28c-28.25 0-28.67-38.49-27.41-54.62h-86c6.42 30.85 5.5 63.31-.41 96.88 39.11 9.25 78.14 28.54 113.76 54.63 39-25.72 79.2-45.82 124.55-60.59-12.34-15.42-15.75-21.02-15.75-57.58m-210 56.78c4.49-14.41 3.38-64.79.15-80.12h63.69c0 33.87 11.9 53.5 37.66 53.5s34.78-16.88 34.78-30.16c0-17.72-8.72-24.42-19.3-28S152 224.29 152 224.29V160.6s18.42 4.49 29.35-4.38c6.59-5.35 10.55-14.82 10.15-24.28-.9-21.47-23.13-27.15-34.85-27.15-18.55 0-33.48 10.5-35.55 33.68a96.49 96.49 0 0 0 1.09 25.32H60.54c3-33.8 2.18-55.09-3.9-85.31 18-8.13 86.5-29.75 100.05-58C170.89 48 239.48 74.05 257.23 79.3c-5.75 18.25-.34 38.53-.34 60.92 0 27.25-12.5 44-30.7 51 31.2 9.52 34.67 37.14 34.67 63.24 0 22.45-1 39.28 10.53 52.78-31.5 10.5-82.5 32-109 52.5-24.5-21.02-71.5-39.8-101.5-48.52Z" class="cls-1"/><path d="m507.06 243.68-83.42-1v20.62H385c9.18-21.72 115.18-37.38 115.08-127.82.74-28.58 3.32-51.73 7.9-65.42-47-7-94.85-35.48-116.33-68.38-18 32.24-64.14 53.25-110.17 70.66 5.24 27.53 5.15 59.71 1.31 95H373s-14.59-31.57-.07-45.09a29.9 29.9 0 0 1 21-8.48c6.38 0 22.26 2.45 22.54 20.35-1.29 13.88-9.37 21.12-40.47 36.59 0 0-43.36 21.54-60.88 40.36-22.12 23.8-32.12 52.64-31.48 90.77l.71 41C321 343 359.05 353.24 398 370c34.19-19.77 76.83-28.09 123.84-30.46-16.11-20.65-16.11-51.32-14.78-95.86m-110 114.93c-37.34-17.25-71.55-25.37-102.92-25.65l-.54-31.29c-.62-35 8.42-61.87 28.84-83.79 17.06-18.32 39.29-28.89 58-38.22 31-15.46 44.31-24.84 45.92-45.21 0-22.9-19.52-29.58-30.75-30-12.95-.52-22.36 3.67-29.63 10.52-15.37 14.48-6.67 42.36-6.67 42.36h-65.7c2.79-34.59 2.95-54.84-1-78.81 52.84-22.2 80.41-34.22 99.15-60 23.16 30.85 89.93 58.23 103.57 60-3 21.46-5.33 32.68-5.33 59 0 52.1-47.33 81.38-79.16 97.23-15.24 7.59-40 21.3-43.26 38.6h66v-20.5l63.21.78c-.73 34.58-1.79 57.34 8.88 77.19-35.19 2.56-81.2 9.57-108.57 27.79Z" class="cls-1"/></g></g></g></svg>